<svg xmlns="http://www.w3.org/2000/svg" xmlns:xlink="http://www.w3.org/1999/xlink" width="500" zoomAndPan="magnify" viewBox="0 0 375 374.999991" height="500" preserveAspectRatio="xMidYMid meet" version="1.0"><defs><clipPath id="15183de311"><path d="M 83 32 L 297 32 L 297 328.148438 L 83 328.148438 Z M 83 32 " clip-rule="nonzero"/></clipPath></defs><path fill="#f7ad79" d="M 219.101562 100.480469 C 202.925781 100.480469 189.800781 111.980469 189.800781 126.160156 C 189.800781 111.980469 176.695312 100.480469 160.507812 100.480469 C 146.949219 100.480469 132.683594 111.820312 131.859375 125.351562 C 130.765625 143.414062 143.949219 160.316406 156.191406 172.082031 C 164.96875 180.511719 174.863281 188.339844 184.945312 195.144531 C 185.347656 195.417969 189.207031 198.375 189.800781 198.042969 C 213.832031 184.574219 248.414062 156.902344 248.414062 126.160156 C 248.410156 111.976562 235.289062 100.480469 219.101562 100.480469 Z M 219.101562 100.480469 " fill-opacity="1" fill-rule="nonzero"/><path fill="#002747" d="M 189.679688 202.007812 C 188.082031 202.007812 186.640625 201.273438 182.976562 198.582031 L 182.707031 198.386719 C 171.984375 191.152344 162.132812 183.25 153.460938 174.921875 C 135.558594 157.714844 126.964844 140.953125 127.929688 125.113281 C 128.835938 110.15625 144.363281 96.539062 160.507812 96.539062 C 173.152344 96.539062 184.171875 102.867188 189.785156 112.152344 C 191.351562 109.558594 193.363281 107.164062 195.789062 105.039062 C 202.042969 99.558594 210.320312 96.539062 219.097656 96.539062 C 219.101562 96.539062 219.101562 96.539062 219.101562 96.539062 C 227.886719 96.539062 236.167969 99.554688 242.421875 105.039062 C 248.828125 110.648438 252.351562 118.148438 252.351562 126.160156 C 252.351562 165.515625 201.851562 195.808594 191.726562 201.480469 C 191.117188 201.824219 190.40625 202.007812 189.679688 202.007812 Z M 160.507812 104.421875 C 148.464844 104.421875 136.453125 114.710938 135.792969 125.589844 C 134.777344 142.316406 147.808594 158.558594 158.921875 169.238281 C 167.148438 177.140625 176.910156 184.96875 187.148438 191.875 C 187.238281 191.9375 187.40625 192.058594 187.636719 192.226562 C 188.503906 192.863281 189.140625 193.308594 189.605469 193.621094 C 215.316406 178.792969 244.472656 152.671875 244.472656 126.160156 C 244.472656 120.453125 241.902344 115.058594 237.230469 110.96875 C 232.414062 106.746094 225.976562 104.421875 219.101562 104.421875 C 219.101562 104.421875 219.101562 104.421875 219.097656 104.421875 C 212.230469 104.421875 205.796875 106.746094 200.980469 110.96875 C 196.3125 115.058594 193.738281 120.453125 193.738281 126.160156 C 193.738281 128.335938 191.976562 130.101562 189.800781 130.101562 C 187.625 130.101562 185.859375 128.335938 185.859375 126.160156 C 185.859375 114.171875 174.484375 104.421875 160.507812 104.421875 Z M 160.507812 104.421875 " fill-opacity="1" fill-rule="nonzero"/><path fill="#e83f62" d="M 262.859375 66.984375 C 222.683594 26.804688 157.550781 26.804688 117.371094 66.984375 C 80.730469 103.625 77.503906 161.027344 107.675781 201.324219 C 107.667969 201.324219 107.667969 201.324219 107.667969 201.324219 L 190.101562 324.144531 L 270.199219 204.359375 C 285.660156 185.214844 293.246094 161.824219 292.960938 138.503906 C 292.640625 112.582031 282.625 86.765625 262.859375 66.984375 Z M 251.007812 200.675781 C 249.863281 201.832031 248.683594 202.9375 247.480469 204.007812 C 228.96875 220.582031 205.007812 227.742188 181.804688 225.511719 C 163.1875 223.707031 145.058594 215.875 130.570312 202.003906 C 130.117188 201.566406 129.660156 201.121094 129.210938 200.675781 C 95.585938 167.027344 95.585938 112.484375 129.210938 78.839844 C 162.847656 45.195312 217.382812 45.195312 251.007812 78.839844 C 267.550781 95.394531 275.945312 117.011719 276.210938 138.707031 C 276.488281 161.101562 268.097656 183.582031 251.007812 200.675781 Z M 251.007812 200.675781 " fill-opacity="1" fill-rule="nonzero"/><g clip-path="url(#15183de311)"><path fill="#002747" d="M 190.101562 328.085938 C 188.789062 328.085938 187.5625 327.433594 186.828125 326.34375 L 104.394531 203.519531 C 104.386719 203.503906 104.375 203.492188 104.367188 203.476562 C 89.21875 183.140625 81.824219 157.953125 83.539062 132.519531 C 85.273438 106.746094 96.300781 82.480469 114.585938 64.195312 C 134.761719 44.019531 161.585938 32.90625 190.117188 32.90625 C 218.648438 32.90625 245.472656 44.019531 265.648438 64.195312 C 285.457031 84.023438 296.554688 110.394531 296.902344 138.457031 C 297.203125 163.246094 288.851562 187.472656 273.378906 206.699219 L 193.375 326.335938 C 192.644531 327.429688 191.417969 328.085938 190.105469 328.085938 C 190.101562 328.085938 190.101562 328.085938 190.101562 328.085938 Z M 111.082031 199.34375 L 190.09375 317.066406 L 266.925781 202.167969 C 266.992188 202.070312 267.058594 201.976562 267.132812 201.882812 C 281.53125 184.0625 289.300781 161.570312 289.019531 138.550781 C 288.699219 112.558594 278.417969 88.132812 260.074219 69.769531 C 241.386719 51.082031 216.542969 40.789062 190.117188 40.789062 C 163.691406 40.789062 138.84375 51.082031 120.15625 69.769531 C 85.582031 104.347656 81.570312 159.886719 110.828125 198.957031 C 110.921875 199.082031 111.007812 199.210938 111.082031 199.34375 Z M 190.09375 229.851562 C 187.210938 229.851562 184.296875 229.710938 181.429688 229.4375 C 161.113281 227.464844 142.585938 218.964844 127.847656 204.851562 C 127.375 204.398438 126.898438 203.933594 126.429688 203.464844 C 91.324219 168.335938 91.324219 111.179688 126.425781 76.054688 C 143.4375 59.035156 166.054688 49.664062 190.113281 49.664062 C 214.171875 49.664062 236.789062 59.035156 253.792969 76.054688 C 270.5 92.765625 279.859375 115 280.152344 138.65625 C 280.453125 163.140625 271.09375 186.15625 253.792969 203.460938 C 252.6875 204.582031 251.472656 205.730469 250.105469 206.949219 C 233.613281 221.71875 212.296875 229.851562 190.09375 229.851562 Z M 190.113281 57.546875 C 168.160156 57.546875 147.523438 66.097656 132 81.628906 C 99.964844 113.679688 99.964844 165.835938 132 197.886719 C 132.421875 198.308594 132.859375 198.734375 133.292969 199.152344 C 146.742188 212.035156 163.648438 219.792969 182.1875 221.589844 C 184.800781 221.84375 187.464844 221.96875 190.09375 221.96875 C 210.355469 221.96875 229.800781 214.550781 244.855469 201.074219 C 246.101562 199.957031 247.199219 198.921875 248.207031 197.902344 C 264.007812 182.097656 272.546875 161.097656 272.273438 138.753906 C 272.007812 117.164062 263.46875 96.878906 248.222656 81.628906 C 232.703125 66.097656 212.066406 57.546875 190.113281 57.546875 Z M 190.113281 57.546875 " fill-opacity="1" fill-rule="nonzero"/></g><path fill="#002747" d="M 254.863281 169.65625 C 254.496094 169.65625 254.121094 169.582031 253.761719 169.429688 C 252.332031 168.820312 251.667969 167.164062 252.277344 165.734375 C 252.375 165.5 252.511719 165.21875 252.6875 164.867188 C 253.382812 163.472656 254.820312 160.578125 256.539062 153.59375 C 256.910156 152.082031 258.4375 151.15625 259.945312 151.53125 C 261.457031 151.902344 262.378906 153.429688 262.003906 154.9375 C 260.140625 162.527344 258.511719 165.800781 257.726562 167.375 C 257.613281 167.605469 257.515625 167.789062 257.453125 167.941406 C 256.996094 169.011719 255.957031 169.65625 254.863281 169.65625 Z M 254.863281 169.65625 " fill-opacity="1" fill-rule="nonzero"/><path fill="#002747" d="M 262.398438 139.613281 C 262.335938 139.613281 262.269531 139.613281 262.203125 139.605469 C 260.652344 139.5 259.480469 138.15625 259.589844 136.605469 C 262.355469 96.25 222.449219 80.789062 222.046875 80.640625 C 220.589844 80.09375 219.851562 78.46875 220.398438 77.015625 C 220.945312 75.558594 222.570312 74.824219 224.023438 75.367188 C 224.464844 75.535156 268.257812 92.5 265.203125 136.992188 C 265.101562 138.476562 263.867188 139.613281 262.398438 139.613281 Z M 262.398438 139.613281 " fill-opacity="1" fill-rule="nonzero"/><path fill="#f7ad79" d="M 155.257812 249.742188 L 172.902344 276.59375 " fill-opacity="1" fill-rule="nonzero"/><path fill="#002747" d="M 172.90625 279.410156 C 171.992188 279.410156 171.09375 278.960938 170.550781 278.140625 L 152.90625 251.289062 C 152.050781 249.992188 152.414062 248.246094 153.710938 247.390625 C 155.007812 246.539062 156.753906 246.898438 157.609375 248.195312 L 175.253906 275.046875 C 176.109375 276.34375 175.75 278.089844 174.449219 278.945312 C 173.972656 279.257812 173.4375 279.410156 172.90625 279.410156 Z M 172.90625 279.410156 " fill-opacity="1" fill-rule="nonzero"/><path fill="#f7ad79" d="M 144.992188 232.976562 L 147.1875 236.410156 " fill-opacity="1" fill-rule="nonzero"/><path fill="#002747" d="M 147.191406 239.226562 C 146.265625 239.226562 145.355469 238.769531 144.820312 237.929688 L 142.621094 234.496094 C 141.785156 233.1875 142.167969 231.445312 143.476562 230.605469 C 144.78125 229.769531 146.523438 230.148438 147.363281 231.460938 L 149.558594 234.890625 C 150.398438 236.203125 150.015625 237.941406 148.707031 238.78125 C 148.238281 239.082031 147.710938 239.226562 147.191406 239.226562 Z M 147.191406 239.226562 " fill-opacity="1" fill-rule="nonzero"/></svg>